<?xml version="1.0" standalone="no"?>
<!DOCTYPE svg PUBLIC "-//W3C//DTD SVG 20010904//EN"
 "http://www.w3.org/TR/2001/REC-SVG-20010904/DTD/svg10.dtd">
<svg version="1.0" xmlns="http://www.w3.org/2000/svg"
 width="16.000000pt" height="16.000000pt" viewBox="0 0 16.000000 16.000000"
 preserveAspectRatio="xMidYMid meet">

<g transform="translate(0.000000,16.000000) scale(0.100000,-0.100000)"
fill="#000000" stroke="none">
<path d="M130 131 c0 -6 -9 -11 -20 -11 -11 0 -20 -4 -20 -10 0 -5 7 -7 16 -3
9 3 19 1 23 -6 6 -9 11 -8 20 2 9 11 8 17 -4 27 -10 9 -15 9 -15 1z"/>
<path d="M24 112 c18 -4 36 -19 46 -37 9 -16 26 -31 38 -33 12 -2 22 -8 22
-14 0 -6 6 -6 15 2 12 10 13 16 4 27 -10 11 -14 11 -20 1 -12 -18 -42 2 -49
33 -5 20 -12 24 -45 26 -34 1 -36 0 -11 -5z"/>
<path d="M25 50 l-30 -8 33 -1 c17 0 32 4 32 9 0 6 -1 9 -2 9 -2 -1 -16 -5
-33 -9z"/>
</g>
</svg>
